<svg width="11" height="11" viewBox="0 0 11 11" fill="none"
    xmlns="http://www.w3.org/2000/svg">
    <path d="M10.5625 5.92188L6.4375 9.85938C6.20312 10.0703 5.85156 10.0703 5.64062 9.83594C5.42969 9.60156 5.42969 9.25 5.66406 9.03906L8.78125 6.0625H0.8125C0.484375 6.0625 0.25 5.82812 0.25 5.5C0.25 5.19531 0.484375 4.9375 0.8125 4.9375H8.78125L5.66406 1.98438C5.42969 1.77344 5.42969 1.39844 5.64062 1.1875C5.85156 0.953125 6.22656 0.953125 6.4375 1.16406L10.5625 5.10156C10.6797 5.21875 10.75 5.35938 10.75 5.5C10.75 5.66406 10.6797 5.80469 10.5625 5.92188Z" fill="#0F0F0F"/>
</svg>
