<svg width="50" height="50" viewBox="0 0 50 50" fill="none"
    xmlns="http://www.w3.org/2000/svg">
    <path fill-rule="evenodd" clip-rule="evenodd" d="M36.2159 14.829C36.7427 15.4278 37.2221 16.0689 37.6486 16.7466C44.8927 15.3334 34.9883 23.3191 26.9421 27.8819L26.9468 27.8792C26.6495 28.0531 26.3164 28.2455 26.0097 28.4206L26.0139 28.4182C13.9685 35.2729 6.08909 36.8682 11.6564 31.4459C11.3209 30.7853 11.033 30.0965 10.7974 29.3839C4.66908 33.8274 0.965624 37.5801 1.637 39.0307C2.75611 41.4015 14.823 36.814 28.0209 29.1033C50.8933 15.6189 55.8036 6.40767 36.2159 14.829ZM39.1997 22.5846C40.934 35.638 26.36 43.8422 16.1436 36.0045C23.8958 32.4365 32.9195 27.1216 39.1997 22.5846ZM13.6834 33.5455C8.69153 27.1447 10.0418 18.1998 16.0715 13.4377C23.7029 7.45136 34.5654 10.509 38.2223 19.0998C33.17 24.1695 20.1336 31.5516 13.6834 33.5455Z" fill="black"/>
</svg>
