<svg width="50" height="50" viewBox="0 0 50 50" fill="none"
    xmlns="http://www.w3.org/2000/svg">
    <g clip-path="url(#clip0_22_435)">
        <path d="M23.5352 29.3945C22.7268 29.3945 22.0703 30.051 22.0703 30.8594C22.0703 31.6677 22.7268 32.3242 23.5352 32.3242C24.3435 32.3242 25 31.6677 25 30.8594C25 30.051 24.3435 29.3945 23.5352 29.3945Z" fill="black"/>
        <path d="M30.8865 31.4529L30.8552 30.5862C30.7091 26.6323 27.4933 23.5352 23.5352 23.5352C17.5961 23.5352 16.4902 29.1016 16.2823 29.3945H1.95847C2.74239 33.7147 4.66805 37.7563 7.5222 41.1133H45.4193C46.0587 40.3618 46.6434 39.5664 47.1966 38.7474C45.9328 38.1874 32.1651 32.0923 30.8865 31.4529ZM23.5352 35.2539C21.1121 35.2539 19.1406 33.2825 19.1406 30.8594C19.1406 28.4363 21.1121 26.4648 23.5352 26.4648C25.9583 26.4648 27.9297 28.4363 27.9297 30.8594C27.9297 33.2825 25.9583 35.2539 23.5352 35.2539Z" fill="black"/>
        <path d="M1.62849 26.4648H14.2685C15.9492 22.9214 19.5511 20.6055 23.5352 20.6055C25.23 20.6055 26.807 21.0453 28.2139 21.7663L38.4941 3.26157C34.8164 1.22414 30.7064 0 26.4648 0C12.7335 0 1.5625 11.2686 1.5625 25C1.5625 25.4913 1.5995 25.9777 1.62849 26.4648Z" fill="black"/>
        <path d="M7.42188 44.043H45.5078V50H7.42188V44.043Z" fill="black"/>
        <path d="M39.5481 7.39822L30.6202 23.4657C32.2655 25.0423 33.403 27.1481 33.7059 29.5464L45.9774 34.9987C47.5609 31.9111 48.4375 28.5011 48.4375 25C48.4375 18.0031 45.1199 11.5398 39.5481 7.39822Z" fill="black"/>
    </g>
    <defs>
        <clipPath id="clip0_22_435">
            <rect width="50" height="50" fill="white"/>
        </clipPath>
    </defs>
</svg>
