<svg width="40" height="40" viewBox="0 0 40 40" fill="none"
    xmlns="http://www.w3.org/2000/svg">
    <g clip-path="url(#clip0_28_191)">
        <path fill-rule="evenodd" clip-rule="evenodd" d="M19.9883 40C19.918 40 19.8242 39.9766 19.7539 39.9297L2.85881 30.1582C2.69478 30.0879 2.62448 29.9238 2.62448 29.7598V10.2402C2.62448 10.0762 2.69478 9.91213 2.85881 9.81839L19.7539 0.0702988C19.918 -0.0234329 20.082 -0.0234329 20.2226 0.0702988L37.1412 9.81839C37.2818 9.91213 37.3755 10.0762 37.3755 10.2402V29.7598C37.3755 29.9238 37.2818 30.0879 37.1412 30.1582L20.2226 39.9297C20.1523 39.9766 20.082 40 19.9883 40ZM19.9883 35.4071H19.9648H19.9414L19.918 35.3837H19.8945H19.8711H19.8477L19.8242 35.3603H19.8008L19.7774 35.3368H19.7539L6.84241 27.8617H6.81897H6.79554V27.8383H6.77211V27.8149H6.74868L6.72524 27.7914L6.70181 27.768V27.7446H6.67838V27.7211H6.65494V27.6977V27.6743H6.63151V27.6509V27.6274L6.60808 27.604V27.5806V27.5571V27.5337V27.5103H6.58465V27.4868V27.4634V12.5366C6.58465 12.5132 6.58465 12.4897 6.58465 12.4897C6.60808 12.4429 6.60808 12.4194 6.60808 12.3726L6.63151 12.3492V12.3257H6.65494V12.3023V12.2789H6.67838V12.2554C6.72524 12.2086 6.77211 12.1617 6.81897 12.1383V12.1148H6.84241L19.7539 4.66315L19.7774 4.63972H19.8008H19.8242V4.61629H19.8477H19.8711H19.8945V4.59285H19.918H19.9414H20.0351H20.0586H20.082H20.1054V4.61629H20.1289H20.1523H20.1757V4.63972H20.1992H20.2226V4.66315H20.246L33.1576 12.1148H33.181V12.1383H33.2044V12.1617H33.2279L33.2513 12.1851V12.2086H33.2747L33.2982 12.232V12.2554H33.3216V12.2789L33.345 12.3023V12.3257H33.3685V12.3492V12.3726V12.396H33.3919V12.4194V12.4429V12.4663V12.4897V12.5132V12.5366V27.4634V27.4868V27.5103V27.5337V27.5806V27.604C33.3685 27.604 33.3685 27.6274 33.3685 27.6274V27.6509L33.345 27.6743V27.6977H33.3216V27.7211V27.7446H33.2982C33.2982 27.768 33.2747 27.768 33.2747 27.7914H33.2513C33.2279 27.8149 33.2044 27.8617 33.1576 27.8852L20.2226 35.3368L20.1992 35.3603H20.1757H20.1523V35.3837H20.1289H20.1054H20.082H20.0586L20.0351 35.4071C20.0117 35.4071 20.0117 35.4071 19.9883 35.4071ZM19.5196 27.0182C17.2935 26.8776 15.3251 25.6825 14.1535 23.9016L7.99062 27.4634L19.5196 34.1183V27.0182ZM13.6848 23.1049C13.2162 22.1675 12.9584 21.1131 12.9584 19.9883C12.9584 18.8869 13.2162 17.8325 13.6848 16.8951L7.52196 13.3333V26.6432L13.6848 23.1049ZM14.1535 16.075C15.3251 14.3175 17.2935 13.1224 19.5196 12.9818V5.88166L7.99062 12.5366L14.1535 16.075ZM20.4569 12.9818C22.7065 13.1224 24.6514 14.3175 25.8465 16.075L31.9859 12.5366L20.4569 5.88166V12.9818ZM26.3152 16.8951C26.7838 17.8325 27.0416 18.8869 27.0416 19.9883C27.0416 21.1131 26.7838 22.1675 26.3152 23.1049L32.4546 26.6432V13.3333L26.3152 16.8951ZM25.8465 23.9016C24.6514 25.6825 22.7065 26.8776 20.4569 27.0182V34.1183L31.9859 27.4634L25.8465 23.9016ZM19.5196 13.9192C17.645 14.0598 15.9812 15.0674 14.9736 16.5436L16.6374 17.5044C17.2935 16.5905 18.348 15.9578 19.5196 15.8407V13.9192ZM14.505 17.3638C14.1066 18.1605 13.8957 19.051 13.8957 19.9883C13.8957 20.949 14.1066 21.8395 14.4815 22.6362L16.1453 21.6755C15.9344 21.1599 15.8172 20.5975 15.8172 19.9883C15.8172 19.4025 15.9344 18.8401 16.1453 18.3245L14.505 17.3638ZM14.9736 23.4329C15.9812 24.9326 17.645 25.9402 19.5196 26.0808V24.1593C18.348 24.0187 17.2935 23.3861 16.6374 22.4722L14.9736 23.4329ZM20.4569 26.0808C22.355 25.9402 24.0187 24.9326 25.0264 23.4329L23.3626 22.4722C22.6831 23.3861 21.652 24.0187 20.4569 24.1593V26.0808ZM25.495 22.6362C25.8934 21.8395 26.1043 20.949 26.1043 19.9883C26.1043 19.051 25.8934 18.1605 25.495 17.3638L23.8313 18.3245C24.0656 18.8401 24.1828 19.4025 24.1828 19.9883C24.1828 20.5975 24.0656 21.1599 23.8313 21.6755L25.495 22.6362ZM25.0264 16.5436C24.0187 15.0674 22.355 14.0598 20.4569 13.9192V15.8407C21.652 15.9578 22.6831 16.5905 23.3626 17.5044L25.0264 16.5436ZM17.0826 21.4411C17.1295 21.488 17.1763 21.5349 17.2232 21.6052C17.2466 21.652 17.2701 21.7223 17.2935 21.7926C17.8559 22.6596 18.8635 23.2455 19.9883 23.2455C21.7926 23.2455 23.2455 21.7926 23.2455 19.9883C23.2455 18.2074 21.7926 16.7545 19.9883 16.7545C18.2074 16.7545 16.7545 18.2074 16.7545 19.9883C16.7545 20.5272 16.8717 21.0193 17.0826 21.4411Z" fill="black"/>
    </g>
    <defs>
        <clipPath id="clip0_28_191">
            <rect width="40" height="40" fill="white"/>
        </clipPath>
    </defs>
</svg>
