<svg width="50" height="50" viewBox="0 0 50 50" fill="none"
    xmlns="http://www.w3.org/2000/svg">
    <path d="M12.212 42.786C19.3662 48.2022 30.4568 48.2552 37.6525 42.8785C30.1898 44.8555 19.6206 44.8187 12.212 42.786Z" fill="black"/>
    <path d="M37.3743 36.6325C34.8098 40.0037 29.0838 40.5989 25.7331 37.9474C24.6745 37.1671 23.4056 36.7236 22.0915 36.6746C14.9094 36.3628 8.47768 34.9129 4.50732 32.7717C5.51709 35.4187 7.02833 37.8459 8.95811 39.9201C17.2316 43.4946 32.4776 43.5418 40.8811 40.0885C42.8591 38.0116 44.4088 35.5655 45.4415 32.8898C43.7655 33.7461 42.0019 34.4187 40.1814 34.896C39.0893 35.1723 38.1091 35.7787 37.3743 36.6325Z" fill="black"/>
    <path d="M34.3565 28.0849C33.0987 27.3828 31.6567 27.0809 30.2229 27.2195C28.7891 27.3581 27.4317 27.9305 26.3316 28.8604C25.5155 29.5782 24.5641 30.1255 23.5333 30.47C22.5026 30.8145 21.4133 30.9494 20.3297 30.8666C12.8779 30.3356 6.55568 28.5991 3.11639 26.1967C3.19121 27.5759 3.39727 28.9449 3.73178 30.285C7.06147 32.8476 14.0749 34.6431 22.1673 34.9887C23.8241 35.0537 25.4225 35.6179 26.753 36.6072C29.3932 38.7061 34.039 38.2428 36.0508 35.5871C37.0069 34.4549 38.2912 33.6477 39.7262 33.2775C42.0402 32.709 44.2408 31.7512 46.2338 30.4452C46.5768 29.1001 46.7913 27.7255 46.8745 26.3399C45.0481 27.4933 43.0631 28.3736 40.9822 28.9532C39.8769 29.2671 38.7191 29.352 37.5798 29.2027C36.4405 29.0534 35.3436 28.673 34.3565 28.0849ZM30.9931 35.1236C25.5983 35.4895 24.3016 30.0675 30.2008 29.5769C35.5956 29.211 36.8923 34.633 30.9931 35.1236Z" fill="black"/>
    <path d="M25.202 27.6128C26.5659 26.4424 28.2568 25.72 30.0453 25.5436C31.8338 25.3672 33.6332 25.7453 35.1995 26.6266C35.9862 27.1011 36.8618 27.4095 37.7723 27.5327C38.6827 27.6559 39.6087 27.5914 40.4933 27.343C42.8199 26.7444 44.9998 25.6774 46.8998 24.2072C46.843 22.4636 46.5712 20.7337 46.0906 19.0567C37.7933 25.9313 12.0818 25.9134 3.94257 18.9299C3.46171 20.5906 3.18153 22.3029 3.10803 24.0302C5.80547 26.6181 12.5323 28.6243 20.4477 29.1806C21.3048 29.2509 22.1672 29.1483 22.9839 28.879C23.8006 28.6097 24.5549 28.1791 25.202 27.6128Z" fill="black"/>
    <path d="M45.5342 17.3371C44.86 15.532 43.9471 13.8253 42.8199 12.2625C35.8293 19.362 14.1147 19.3629 7.26381 12.1442C6.12597 13.7059 5.20178 15.4126 4.51575 17.219C11.816 24.2342 38.0669 24.2456 45.5342 17.3371Z" fill="black"/>
    <path d="M41.783 10.9222C33.363 0.580796 16.7996 0.520882 8.30908 10.8129C14.5259 17.5451 35.4412 17.5628 41.783 10.9222ZM16.1149 9.70834C16.1149 7.23004 19.9335 5.36708 24.9997 5.36708C36.7985 5.4404 36.7903 13.9792 24.9996 14.058C19.9335 14.058 16.1149 12.1866 16.1149 9.70834Z" fill="black"/>
    <path d="M24.9997 7.05298C20.5405 7.05298 17.8008 8.60405 17.8008 9.70833C17.8008 10.821 20.5405 12.3721 24.9997 12.3721C29.4589 12.3721 32.1986 10.821 32.1986 9.70833C32.1986 8.60405 29.4589 7.05298 24.9997 7.05298Z" fill="black"/>
</svg>
