<svg width="40" height="40" viewBox="0 0 40 40" fill="none"
    xmlns="http://www.w3.org/2000/svg">
    <path fill-rule="evenodd" clip-rule="evenodd" d="M39.9844 34.3984H0.0156256C-0.0390619 33.7109 0.101563 33.0234 0.390626 32.3359H39.6094C39.8984 33.0234 40.0312 33.7109 39.9844 34.3984ZM14.7969 9.53906H10.4922L7.72656 15.7812C8.92188 15.9453 9.83594 16.9844 9.83594 18.2109V24.875C9.83594 26.2266 8.73438 27.3281 7.38281 27.3281H2.60938L0.742188 31.5469H10.0937L14.7969 9.53906ZM10.9062 31.5391L15.6094 9.53906H24.3906L29.0937 31.5391H10.9062ZM20 27.2187C25.0312 27.2578 27.5703 20.9922 24.0156 17.5234C22 15.3359 17.9922 15.3359 15.9844 17.5234C12.4297 20.9922 14.9687 27.2578 20 27.2187ZM9.03906 24.8672V18.2031C9.03906 17.2969 8.28906 16.5469 7.38281 16.5547L2.96875 26.5234H7.39062C8.29688 26.5234 9.03906 25.7812 9.03906 24.8672ZM15.1172 21.5391C15.0859 17.2109 20.4688 15.0312 23.4531 18.0859C25.3359 19.8125 25.3281 23.2656 23.4531 24.9922C20.4688 28.0469 15.0859 25.8672 15.1172 21.5391ZM20 25.2656C22.0625 25.2656 23.7344 23.5938 23.7344 21.5312C23.7812 18.2422 19.6172 16.5547 17.3672 18.8906C15.0234 21.1562 16.7109 25.3125 20 25.2656ZM17.9219 23.6094C20.75 26.2656 24.7266 22.2812 22.0703 19.4609C19.25 16.8047 15.2656 20.7891 17.9219 23.6094ZM30.9609 18.2031V24.8672C30.9609 25.3203 31.1484 25.7344 31.4453 26.0312C31.7422 26.3281 32.1562 26.5156 32.6094 26.5156H37.0312L32.6172 16.5469C31.7109 16.5469 30.9609 17.2969 30.9609 18.2031ZM29.9062 31.5391H39.2578L37.3906 27.3203H32.6172C31.2656 27.3203 30.1641 26.2187 30.1641 24.8672V18.2031C30.1641 16.9766 31.0781 15.9453 32.2734 15.7734L29.5078 9.53125H25.2031L29.9062 31.5391ZM29.375 6.80469C29.375 6.49219 29.2422 6.20312 29.0391 5.99219C28.8281 5.78125 28.5469 5.65625 28.2266 5.65625H25.1172V8.74219H29.375V6.80469ZM24.3125 8.74219H15.6875V5.25781V3.35938C15.6875 3.00781 15.8281 2.69531 16.0625 2.46094C16.2969 2.23437 16.6094 2.08594 16.9609 2.08594H23.0469C23.3906 2.08594 23.6953 2.21875 23.9297 2.4375C24.1719 2.67188 24.3203 2.99219 24.3203 3.35156V5.24219V8.74219H24.3125ZM22.1406 5.41406C22.0547 2.57813 17.9375 2.57813 17.8516 5.41406C17.9297 8.24219 22.0703 8.24219 22.1406 5.41406ZM19.0469 4.46094C17.8203 5.75 19.6641 7.59375 20.9531 6.36719C22.1797 5.07812 20.3359 3.23437 19.0469 4.46094ZM14.8906 5.65625H11.7812C11.4687 5.65625 11.1797 5.78125 10.9687 5.99219C10.7578 6.20312 10.6328 6.49219 10.6328 6.80469V8.74219H14.8906V5.65625ZM3.85938 37.9062H36.1328C37.8359 37.9375 39.3203 36.8047 39.8281 35.1953H0.171876C0.671876 36.8047 2.15625 37.9375 3.85938 37.9062Z" fill="black"/>
</svg>
