<svg width="168" height="64" viewBox="0 0 168 64" fill="none" xmlns="http://www.w3.org/2000/svg">
<path d="M77.0176 56.381H81.3926V39.8781H77.0176V56.381ZM77.0176 37.3045H81.3926V33.3799H77.0176V37.3045Z" fill="white"/>
<path d="M84.2117 61.7855H88.5867V54.5153H88.6512C89.584 55.9306 91.096 56.8636 93.4121 56.8636C97.6585 56.8636 100.554 53.4858 100.554 48.1457C100.554 42.9985 97.755 39.4277 93.38 39.4277C91.1281 39.4277 89.584 40.4893 88.5224 41.9369H88.4259V39.8781H84.2117V61.7855ZM92.4793 53.2284C89.8736 53.2284 88.4902 51.2661 88.4902 48.2743C88.4902 45.3148 89.584 42.9663 92.3184 42.9663C95.0206 42.9663 96.1144 45.1538 96.1144 48.2743C96.1144 51.3948 94.699 53.2284 92.4793 53.2284Z" fill="white"/>
<path d="M109.281 56.8636C113.399 56.8636 116.23 54.869 116.23 51.5556C116.23 47.6953 113.174 46.9233 110.407 46.3442C108.059 45.8617 105.871 45.7329 105.871 44.3175C105.871 43.1273 106.997 42.4837 108.702 42.4837C110.568 42.4837 111.694 43.1273 111.887 44.8965H115.844C115.522 41.5831 113.109 39.4277 108.766 39.4277C105.003 39.4277 102.043 41.1327 102.043 44.7034C102.043 48.3065 104.938 49.1108 107.898 49.6898C110.15 50.1401 112.241 50.301 112.241 51.8773C112.241 53.0354 111.147 53.7753 109.217 53.7753C107.254 53.7753 105.903 52.9389 105.614 51.0409H101.56C101.818 54.5474 104.488 56.8636 109.281 56.8636Z" fill="white"/>
<path d="M132.84 56.3811V39.8782H128.465V49.4003C128.465 51.5878 127.211 53.1319 125.152 53.1319C123.286 53.1319 122.417 52.0703 122.417 50.1401V39.8782H118.075V50.8801C118.075 54.483 120.133 56.8315 123.801 56.8315C126.117 56.8315 127.404 55.9628 128.53 54.4508H128.626V56.3811H132.84Z" fill="white"/>
<path d="M135.67 56.381H140.045V46.7945C140.045 44.6069 141.236 43.1916 143.005 43.1916C144.613 43.1916 145.546 44.1565 145.546 46.0225V56.381H149.921V46.7945C149.921 44.6069 151.047 43.1916 152.881 43.1916C154.489 43.1916 155.422 44.1565 155.422 46.0225V56.381H159.797V45.2826C159.797 41.6796 157.835 39.4277 154.361 39.4277C152.27 39.4277 150.533 40.5215 149.407 42.3229H149.342C148.538 40.5858 146.865 39.4277 144.774 39.4277C142.49 39.4277 140.882 40.5858 139.981 42.0978H139.884V39.8781H135.67V56.381Z" fill="white"/>
<path d="M77.0819 28.1152H81.4569V5.11401H77.0819V28.1152Z" fill="white"/>
<path d="M92.1546 28.5977C97.2696 28.5977 100.776 24.8017 100.776 19.8798C100.776 14.9578 97.2696 11.1619 92.1546 11.1619C87.0397 11.1619 83.5331 14.9578 83.5331 19.8798C83.5331 24.8017 87.0397 28.5977 92.1546 28.5977ZM92.1546 25.2521C89.4523 25.2521 87.9726 23.0967 87.9726 19.8798C87.9726 16.6628 89.4523 14.4753 92.1546 14.4753C94.8246 14.4753 96.3366 16.6628 96.3366 19.8798C96.3366 23.0967 94.8246 25.2521 92.1546 25.2521Z" fill="white"/>
<path d="M110.08 33.7449C112.525 33.7449 114.648 33.1658 116.031 31.879C117.254 30.753 117.994 29.1767 117.994 26.8606V11.6122H113.78V13.3494H113.715C112.718 11.9661 111.206 11.1619 109.147 11.1619C104.965 11.1619 102.005 14.3145 102.005 19.2364C102.005 24.2226 105.608 27.1178 109.276 27.1178C111.367 27.1178 112.621 26.2815 113.587 25.1878H113.683V26.9892C113.683 29.241 112.493 30.4313 110.016 30.4313C107.989 30.4313 107.056 29.6271 106.702 28.5977H102.359C102.81 31.8146 105.576 33.7449 110.08 33.7449ZM110.016 23.6114C107.764 23.6114 106.284 21.9708 106.284 19.1721C106.284 16.4055 107.764 14.6683 109.984 14.6683C112.621 14.6683 113.908 16.7271 113.908 19.1399C113.908 21.5847 112.782 23.6114 110.016 23.6114Z" fill="white"/>
<path d="M128.628 28.5977C133.743 28.5977 137.249 24.8017 137.249 19.8798C137.249 14.9578 133.743 11.1619 128.628 11.1619C123.513 11.1619 120.007 14.9578 120.007 19.8798C120.007 24.8017 123.513 28.5977 128.628 28.5977ZM128.628 25.2521C125.926 25.2521 124.446 23.0967 124.446 19.8798C124.446 16.6628 125.926 14.4753 128.628 14.4753C131.298 14.4753 132.81 16.6628 132.81 19.8798C132.81 23.0967 131.298 25.2521 128.628 25.2521Z" fill="white"/>
<path d="M141.085 21.81H160V18.0461H141.085V21.81Z" fill="white"/>
<path d="M161.387 37.0746C161.387 36.3343 161.987 35.7341 162.728 35.7341H165.408C166.149 35.7341 166.749 36.3343 166.749 37.0746C166.749 37.8148 166.149 38.4149 165.408 38.4149H162.728C161.987 38.4149 161.387 37.8148 161.387 37.0746Z" fill="white"/>
<path fill-rule="evenodd" clip-rule="evenodd" d="M32.8346 0C50.5077 0 64.8346 14.3269 64.8346 32C64.8346 49.6731 50.5077 64 32.8346 64C15.1615 64 0.834595 49.6731 0.834595 32C0.834595 14.3269 15.1615 0 32.8346 0ZM31.6779 2.39454C28.0274 2.9083 24.5512 5.84173 21.8528 10.7478C21.0701 12.1709 20.3639 13.7431 19.7483 15.4407C23.4175 14.5187 27.448 13.9751 31.6779 13.891V2.39454ZM17.0439 16.2093C17.8091 13.8073 18.7455 11.5974 19.8259 9.63304C21.1635 7.20094 22.7511 5.10072 24.5397 3.48763C14.8135 6.31237 7.14695 13.9789 4.32223 23.7051C5.93531 21.9165 8.03555 20.329 10.4676 18.9914C12.432 17.9109 14.6419 16.9746 17.0439 16.2093ZM16.2752 18.9138C15.3533 22.5829 14.8097 26.6134 14.7256 30.8434H3.22913C3.74291 27.1926 6.67633 23.7165 11.5824 21.0182C13.0055 20.2355 14.5777 19.5293 16.2752 18.9138ZM17.0394 30.8434C17.1349 26.2272 17.7994 21.8934 18.8989 18.0643C22.728 16.9648 27.0619 16.3002 31.6779 16.2046V21.2013C29.9559 25.6099 26.4435 29.1219 22.0347 30.8434H17.0394ZM14.7256 33.1566H3.22913C3.74291 36.8074 6.67633 40.2834 11.5824 42.9818C13.0055 43.7645 14.5777 44.4707 16.2752 45.0862C15.3533 41.4171 14.8097 37.3866 14.7256 33.1566ZM18.8989 45.9357C17.7994 42.1066 17.1349 37.7728 17.0394 33.1566H22.0347C26.4435 34.8781 29.956 38.3901 31.6779 42.7987V47.7954C27.0619 47.6998 22.728 47.0352 18.8989 45.9357ZM17.0439 47.7907C14.6419 47.0254 12.432 46.0891 10.4676 45.0086C8.03555 43.671 5.93531 42.0835 4.32223 40.2949C7.14695 50.0211 14.8135 57.6877 24.5397 60.5123C22.7511 58.8992 21.1635 56.799 19.8259 54.3669C18.7455 52.4026 17.8091 50.1926 17.0439 47.7907ZM31.6779 61.6054C28.0274 61.0917 24.5512 58.1582 21.8528 53.2522C21.0701 51.8291 20.3639 50.2568 19.7483 48.5594C23.4175 49.4813 27.448 50.025 31.6779 50.109V61.6054ZM41.1295 60.5123C42.9181 58.8992 44.5056 56.799 45.8434 54.3669C46.9237 52.4026 47.86 50.1926 48.6253 47.7907C51.0272 47.0254 53.2371 46.0891 55.2016 45.0086C57.6336 43.671 59.7339 42.0835 61.3469 40.2949C58.5223 50.0211 50.8557 57.6877 41.1295 60.5123ZM45.9208 48.5594C45.3053 50.2568 44.5991 51.8291 43.8163 53.2522C41.1181 58.1582 37.6419 61.0917 33.9912 61.6054V50.109C38.2211 50.025 42.2517 49.4813 45.9208 48.5594ZM49.3939 45.0862C51.0914 44.4707 52.6637 43.7645 54.0867 42.9818C58.9928 40.2834 61.9263 36.8074 62.44 33.1566H50.9435C50.8595 37.3866 50.3159 41.4171 49.3939 45.0862ZM48.6299 33.1566C48.5344 37.7728 47.8698 42.1066 46.7703 45.9357C42.9411 47.0352 38.6074 47.6998 33.9912 47.7954V42.8024C35.7127 38.3922 39.2258 34.8786 43.6359 33.1566H48.6299ZM50.9435 30.8434H62.44C61.9263 27.1926 58.9928 23.7165 54.0867 21.0182C52.6637 20.2355 51.0914 19.5293 49.3939 18.9138C50.3159 22.5829 50.8595 26.6134 50.9435 30.8434ZM46.7703 18.0643C47.8698 21.8934 48.5344 26.2272 48.6299 30.8434H43.6359C39.2258 29.1214 35.7127 25.6078 33.9912 21.1976V16.2046C38.6074 16.3002 42.9411 16.9648 46.7703 18.0643ZM48.6253 16.2093C51.0272 16.9746 53.2371 17.9109 55.2016 18.9914C57.6336 20.329 59.7339 21.9165 61.3469 23.7051C58.5223 13.9789 50.8557 6.31237 41.1295 3.48763C42.9181 5.10072 44.5056 7.20094 45.8434 9.63304C46.9237 11.5974 47.86 13.8073 48.6253 16.2093ZM33.9912 2.39454C37.6419 2.9083 41.1181 5.84173 43.8163 10.7478C44.5991 12.1709 45.3053 13.7431 45.9208 15.4407C42.2517 14.5187 38.2211 13.9751 33.9912 13.891V2.39454Z" fill="white"/>
</svg>
