<svg width="24" height="24" viewBox="0 0 24 24" fill="none"
    xmlns="http://www.w3.org/2000/svg">
    <circle cx="12" cy="12" r="11.4" transform="matrix(1 0 0 -1 0 24)" stroke="#0F0F0F" stroke-width="1.2"/>
    <path d="M17.5625 11.9219L13.4375 15.8594C13.2031 16.0703 12.8516 16.0703 12.6406 15.8359C12.4297 15.6016 12.4297 15.25 12.6641 15.0391L15.7812 12.0625H7.8125C7.48438 12.0625 7.25 11.8281 7.25 11.5C7.25 11.1953 7.48438 10.9375 7.8125 10.9375H15.7812L12.6641 7.98438C12.4297 7.77344 12.4297 7.39844 12.6406 7.1875C12.8516 6.95312 13.2266 6.95312 13.4375 7.16406L17.5625 11.1016C17.6797 11.2188 17.75 11.3594 17.75 11.5C17.75 11.6641 17.6797 11.8047 17.5625 11.9219Z" fill="#0F0F0F"/>
</svg>
