<svg width="50" height="50" viewBox="0 0 50 50" fill="none"
    xmlns="http://www.w3.org/2000/svg">
    <path d="M6 37.6125C8.86706 24.9265 14.9929 13.2076 23.7729 3.61254C23.929 3.44271 24.1187 3.30713 24.33 3.21438C24.541 3.12163 24.7694 3.07373 25 3.07373C25.2306 3.07373 25.459 3.12163 25.67 3.21438C25.8812 3.30713 26.071 3.44271 26.2271 3.61254C26.5729 3.98754 26.8604 4.30421 27.0875 4.56046C35.4137 13.981 41.2304 25.3488 44 37.6125C39.5396 38.5521 34.9583 39.1688 30.2833 39.4334L25.9312 48.1375C25.8446 48.3103 25.7117 48.4557 25.5473 48.5571C25.3827 48.6588 25.1933 48.7125 25 48.7125C24.8067 48.7125 24.6173 48.6588 24.4527 48.5571C24.2883 48.4557 24.1554 48.3103 24.0688 48.1375L19.7167 39.4334C15.1051 39.1728 10.5199 38.564 6 37.6125ZM25 31.25C26.6577 31.25 28.2473 30.5915 29.4194 29.4194C30.5915 28.2473 31.25 26.6578 31.25 25C31.25 23.3425 30.5915 21.7528 29.4194 20.5806C28.2473 19.4085 26.6577 18.75 25 18.75C23.3425 18.75 21.7527 19.4085 20.5806 20.5806C19.4085 21.7528 18.75 23.3425 18.75 25C18.75 26.6578 19.4085 28.2473 20.5806 29.4194C21.7527 30.5915 23.3425 31.25 25 31.25Z" fill="black"/>
</svg>
