<svg width="50" height="50" viewBox="0 0 50 50" fill="none"
    xmlns="http://www.w3.org/2000/svg">
    <g clip-path="url(#clip0_22_367)">
        <path d="M49.2188 25C49.2188 25 47.1562 25.3906 43.2891 25.7812C39.4219 26.1719 33.7578 26.5625 26.5625 26.5625C26.5625 40.9531 25 49.2188 25 49.2188C25 49.2188 24.6094 47.1562 24.2188 43.2891C23.8281 39.4219 23.4375 33.7578 23.4375 26.5625C9.04688 26.5625 0.78125 25 0.78125 25C0.78125 25 2.84375 24.6094 6.71094 24.2188C10.5781 23.8281 16.2422 23.4375 23.4375 23.4375C23.4375 9.04688 25 0.78125 25 0.78125C25 0.78125 26.5625 9.04688 26.5625 23.4375C40.9531 23.4375 49.2188 25 49.2188 25Z" fill="black"/>
        <path d="M26.5625 21.875C31.25 15.625 35.9375 14.0625 35.9375 14.0625C33.9236 17.6355 31.2763 20.8123 28.125 23.4375" fill="black"/>
        <path d="M21.875 23.4375C15.625 18.75 14.0625 14.0625 14.0625 14.0625C17.6355 16.0764 20.8123 18.7237 23.4375 21.875" fill="black"/>
        <path d="M23.4375 28.125C18.75 34.375 14.0625 35.9375 14.0625 35.9375C16.0764 32.3645 18.7237 29.1877 21.875 26.5625" fill="black"/>
        <path d="M28.125 26.5625C34.375 31.25 35.9375 35.9375 35.9375 35.9375C32.3645 33.9236 29.1877 31.2763 26.5625 28.125" fill="black"/>
        <path d="M25 28.9062C27.1574 28.9062 28.9062 27.1574 28.9062 25C28.9062 22.8426 27.1574 21.0938 25 21.0938C22.8426 21.0938 21.0938 22.8426 21.0938 25C21.0938 27.1574 22.8426 28.9062 25 28.9062Z" fill="black"/>
    </g>
    <defs>
        <clipPath id="clip0_22_367">
            <rect width="50" height="50" fill="white"/>
        </clipPath>
    </defs>
</svg>
